<?xml version="1.0" encoding="UTF-8"?>
<svg xmlns="http://www.w3.org/2000/svg" xmlns:xlink="http://www.w3.org/1999/xlink" viewBox="0 0 64 64" width="64px" height="64px">
<defs>
<linearGradient id="linear0" gradientUnits="userSpaceOnUse" x1="31.877001" y1="5.753" x2="32.126999" y2="59.002998" >
<stop offset="0" style="stop-color:rgb(6.27451%,96.862745%,67.450982%);stop-opacity:1;"/>
<stop offset="1" style="stop-color:rgb(13.725491%,72.156864%,82.352942%);stop-opacity:1;"/>
</linearGradient>
<linearGradient id="linear1" gradientUnits="userSpaceOnUse" x1="32" y1="10" x2="32" y2="53.546001" >
<stop offset="0" style="stop-color:rgb(6.27451%,96.862745%,67.450982%);stop-opacity:1;"/>
<stop offset="1" style="stop-color:rgb(13.725491%,72.156864%,82.352942%);stop-opacity:1;"/>
</linearGradient>
</defs>
<g id="surface190026625">
<path style=" stroke:none;fill-rule:nonzero;fill:url(#linear0);" d="M 32 58 C 17.664062 58 6 46.335938 6 32 C 6 17.664062 17.664062 6 32 6 C 46.335938 6 58 17.664062 58 32 C 58 46.335938 46.335938 58 32 58 Z M 32 8 C 18.765625 8 8 18.765625 8 32 C 8 45.234375 18.765625 56 32 56 C 45.234375 56 56 45.234375 56 32 C 56 18.765625 45.234375 8 32 8 Z M 32 8 "/>
<path style=" stroke:none;fill-rule:nonzero;fill:url(#linear1);" d="M 32 54 C 19.867188 54 10 44.132812 10 32 C 10 19.867188 19.867188 10 32 10 C 44.132812 10 54 19.867188 54 32 C 54 44.132812 44.132812 54 32 54 Z M 32 12 C 20.972656 12 12 20.972656 12 32 C 12 43.027344 20.972656 52 32 52 C 43.027344 52 52 43.027344 52 32 C 52 20.972656 43.027344 12 32 12 Z M 32 12 "/>
</g>
</svg>
