<?xml version="1.0" encoding="UTF-8"?>
<svg xmlns="http://www.w3.org/2000/svg" xmlns:xlink="http://www.w3.org/1999/xlink" viewBox="0 0 64 64" width="64px" height="64px">
<defs>
<linearGradient id="linear0" gradientUnits="userSpaceOnUse" x1="29.5" y1="19.006001" x2="29.5" y2="46" >
<stop offset="0" style="stop-color:rgb(6.27451%,96.862745%,67.843139%);stop-opacity:1;"/>
<stop offset="1" style="stop-color:rgb(12.156863%,77.254903%,78.823531%);stop-opacity:1;"/>
</linearGradient>
<linearGradient id="linear1" gradientUnits="userSpaceOnUse" x1="29.5" y1="5.833" x2="29.5" y2="58.262001" >
<stop offset="0" style="stop-color:rgb(6.27451%,96.862745%,67.843139%);stop-opacity:1;"/>
<stop offset="1" style="stop-color:rgb(12.156863%,77.254903%,78.823531%);stop-opacity:1;"/>
</linearGradient>
<linearGradient id="linear2" gradientUnits="userSpaceOnUse" x1="32" y1="5.833" x2="32" y2="58.262001" >
<stop offset="0" style="stop-color:rgb(6.27451%,96.862745%,67.843139%);stop-opacity:1;"/>
<stop offset="1" style="stop-color:rgb(12.156863%,77.254903%,78.823531%);stop-opacity:1;"/>
</linearGradient>
</defs>
<g id="surface176514904">
<path style=" stroke:none;fill-rule:nonzero;fill:url(#linear0);" d="M 22.007812 35.25 L 39.023438 25 L 27.011719 37.5 L 37.546875 45.773438 C 39.433594 46.605469 40.121094 44.875 40.121094 44.875 L 44.945312 20.375 C 44.945312 20.375 45.027344 19.75 44.988281 19.625 C 44.644531 18.457031 42.761719 19.300781 42.761719 19.300781 L 15.207031 30.1875 C 15.207031 30.1875 13.902344 30.636719 14.003906 31.464844 C 14.109375 32.296875 15.171875 32.675781 15.171875 32.675781 L 22.007812 35.25 "/>
<path style=" stroke:none;fill-rule:nonzero;fill:url(#linear1);" d="M 45.949219 19.34375 C 45.71875 18.558594 45.089844 18.074219 44.222656 18.011719 C 44.046875 18 43.0625 18.039062 42.398438 18.378906 L 42.394531 18.371094 L 14.882812 29.242188 C 13.996094 29.546875 13.019531 30.265625 13 31.328125 C 12.996094 31.414062 13.003906 31.5 13.015625 31.589844 C 13.1875 32.988281 14.667969 33.558594 14.820312 33.609375 L 21.199219 36.011719 C 21.6875 37.589844 23.304688 42.785156 23.652344 43.898438 C 23.886719 44.644531 24.273438 45.609375 24.980469 45.871094 C 25.183594 45.957031 25.402344 46 25.628906 46 C 26.242188 46 26.640625 45.6875 26.789062 45.554688 L 30.695312 41.664062 L 36.929688 46.558594 C 36.992188 46.613281 37.066406 46.65625 37.144531 46.6875 C 37.660156 46.917969 38.121094 47 38.511719 47 C 38.921875 47 39.257812 46.910156 39.507812 46.804688 C 40.574219 46.367188 41.003906 45.359375 41.050781 45.246094 C 41.070312 45.1875 41.089844 45.128906 41.101562 45.070312 L 45.9375 20.503906 C 46.046875 19.667969 45.988281 19.472656 45.949219 19.34375 Z M 23.195312 35.699219 L 33.066406 29.753906 L 26.292969 36.808594 C 26.171875 36.929688 26.105469 37.085938 26.0625 37.25 C 26.058594 37.261719 25.058594 41.679688 25.058594 41.679688 Z M 43.964844 20.1875 L 39.164062 44.558594 C 39.105469 44.65625 38.964844 44.867188 38.75 44.957031 C 38.570312 45.027344 38.339844 45.011719 38.058594 44.902344 L 28.496094 37.394531 L 39.742188 25.691406 C 40.089844 25.332031 40.117188 24.765625 39.804688 24.375 C 39.492188 23.984375 38.9375 23.886719 38.507812 24.144531 L 21.90625 34.144531 L 15.515625 31.738281 C 15.320312 31.664062 15.117188 31.515625 15.035156 31.414062 C 15.144531 31.320312 15.363281 31.195312 15.574219 31.117188 L 43.132812 20.230469 C 43.148438 20.222656 43.164062 20.214844 43.179688 20.210938 C 43.433594 20.097656 43.769531 20.015625 43.984375 20.003906 C 43.972656 20.105469 43.964844 20.1875 43.964844 20.1875 Z M 43.964844 20.1875 "/>
<path style=" stroke:none;fill-rule:nonzero;fill:url(#linear2);" d="M 32 58 C 17.664062 58 6 46.335938 6 32 C 6 17.664062 17.664062 6 32 6 C 46.335938 6 58 17.664062 58 32 C 58 46.335938 46.335938 58 32 58 Z M 32 8 C 18.765625 8 8 18.765625 8 32 C 8 45.234375 18.765625 56 32 56 C 45.234375 56 56 45.234375 56 32 C 56 18.765625 45.234375 8 32 8 Z M 32 8 "/>
</g>
</svg>
