<?xml version="1.0" encoding="utf-8"?>
<!-- Generator: Adobe Illustrator 26.0.2, SVG Export Plug-In . SVG Version: 6.00 Build 0)  -->
<svg version="1.1" id="outline" xmlns="http://www.w3.org/2000/svg" xmlns:xlink="http://www.w3.org/1999/xlink" x="0px" y="0px"
	 viewBox="0 0 430 430" style="enable-background:new 0 0 430 430;" xml:space="preserve">
<style type="text/css">
	.st0{fill:url(#SVGID_1_);}
	.st1{fill:url(#SVGID_00000005243875393805137710000009981679375690053052_);}
	.st2{fill:url(#SVGID_00000035493201207621735460000005422508339043427716_);}
	.st3{fill:url(#SVGID_00000057833288613780290060000003358881542673689009_);}
	.st4{fill:url(#SVGID_00000096743117268490451930000003204367116010501566_);}
	.st5{fill:url(#SVGID_00000083089818961398134510000000313000098544783259_);}
	.st6{fill:url(#SVGID_00000036956284273826315800000015681628735934812313_);}
	.st7{fill:url(#SVGID_00000005958155748177760900000018030378251361919370_);}
	.st8{fill:url(#SVGID_00000091004246925414790190000013500121183940831875_);}
	.st9{fill:url(#SVGID_00000051346708971360780300000013929708485353669000_);}
	.st10{fill:url(#SVGID_00000007393964718569606930000001148617525429486224_);}
	.st11{fill:url(#SVGID_00000000941932061871018030000015503353275517192322_);}
	.st12{fill:url(#SVGID_00000077285341924042540820000013514005847837476525_);}
	.st13{fill:url(#SVGID_00000003803725029802715290000018093342963053539262_);}
	.st14{fill:url(#SVGID_00000101812914368445545950000001952725175950856869_);}
	.st15{fill:url(#SVGID_00000129177226974679305880000008048207880313164170_);}
	.st16{fill:url(#SVGID_00000010275775730395103260000018346008023787294111_);}
	.st17{fill:url(#SVGID_00000050639306173296318890000000030559121192739750_);}
	.st18{fill:url(#SVGID_00000013165771025008674860000012273542849474511521_);}
	.st19{fill:url(#SVGID_00000111909007936402353790000017653486136198121110_);}
	.st20{fill:url(#SVGID_00000155863352386081691140000002190057504259662745_);}
	.st21{fill:url(#SVGID_00000112606601751355897530000011614551019399575972_);}
	.st22{fill:url(#SVGID_00000180337305485274780870000014181618643909333672_);}
	.st23{fill:url(#SVGID_00000003065531048369682250000006139153676158244009_);}
	.st24{fill:url(#SVGID_00000182504985311754803060000013495271482038739859_);}
	.st25{fill:url(#SVGID_00000116940815309832553510000009691411621897266821_);}
	.st26{fill:url(#SVGID_00000068647532190228155770000005199365788136921021_);}
	.st27{fill:url(#SVGID_00000110458040939013684850000008129170823939985343_);}
	.st28{fill:url(#SVGID_00000165236205754845417360000001073312738993322646_);}
	.st29{fill:url(#SVGID_00000111150746972693973330000010638444851136444330_);}
	.st30{fill:url(#SVGID_00000005955421658293519180000008521715274882364296_);}
	.st31{fill:url(#SVGID_00000014605788460232653920000009376921511040909954_);}
	.st32{fill:url(#SVGID_00000044856392940775533880000007151827488178201005_);}
	.st33{fill:url(#SVGID_00000034077274445568755260000012542502492001587371_);}
	.st34{fill:url(#SVGID_00000105412523359335703320000000718812755184849034_);}
	.st35{fill:url(#SVGID_00000121256527614262402670000011867988788226119342_);}
	.st36{fill:url(#SVGID_00000135649494393011123330000000158507151459974282_);}
	.st37{fill:url(#SVGID_00000143611208517208184240000004042179615145722496_);}
	.st38{fill:url(#SVGID_00000114058812915457563010000009302938831497955493_);}
	.st39{fill:url(#SVGID_00000160174607628838469300000017806958233814031539_);}
	.st40{fill:url(#SVGID_00000005250543901512000720000018243344394113172880_);}
	.st41{fill:url(#SVGID_00000045591239537062865470000008419124293117103762_);}
	.st42{fill:url(#SVGID_00000036241955321500883480000007801180735208940677_);}
	.st43{fill:url(#SVGID_00000007413418423901740310000001587394095673319357_);}
	.st44{fill:url(#SVGID_00000134207330683310592390000013352612570840409534_);}
	.st45{fill:url(#SVGID_00000163775228311992645040000013941642613209005238_);}
	.st46{fill:url(#SVGID_00000067236756547817771800000002375375900639698329_);}
	.st47{fill:url(#SVGID_00000093889394515218431910000009095188873188692148_);}
	.st48{fill:url(#SVGID_00000047757624857769407910000017223114509377821330_);}
	.st49{fill:url(#SVGID_00000045580330252401742820000003504533774689170068_);}
	.st50{fill:url(#SVGID_00000114066928494669322990000001545395240563388825_);}
	.st51{fill:url(#SVGID_00000127731415328736888220000015350484767825052573_);}
	.st52{fill:url(#SVGID_00000000926506442769394980000000454672823616118417_);}
	.st53{fill:url(#SVGID_00000149359542567959523340000003613606943810757817_);}
	.st54{fill:url(#SVGID_00000076568453386488178770000009402883865231395466_);}
	.st55{fill:url(#SVGID_00000050635352681317232090000007502173352906802824_);}
	.st56{fill:url(#SVGID_00000092424420741769784450000014231555355219734193_);}
	.st57{fill:url(#SVGID_00000147935997250955623100000016227354012281212594_);}
</style>
<linearGradient id="SVGID_1_" gradientUnits="userSpaceOnUse" x1="84.4041" y1="88.3841" x2="362.4332" y2="366.4132">
	<stop  offset="0" style="stop-color:#ffffff"/>
	<stop  offset="1" style="stop-color:#ffffff"/>
</linearGradient>
<path class="st0" d="M142.82,309.84h-35.68c-22.98,0-41.68,18.7-41.68,41.68v11.93c0,6.33,4.74,11.64,11.02,12.37l11.83,1.36
	c3,0.35,5.94,1.11,8.71,2.26c0.01,0,0.1,0.04,0.11,0.04c8.81,3.66,18.26,5.49,27.72,5.49c9.5,0,19.01-1.85,27.86-5.55
	c2.65-1.11,5.44-1.84,8.29-2.17l12.49-1.44c6.28-0.73,11.02-6.04,11.02-12.37v-11.94C184.51,328.54,165.81,309.84,142.82,309.84z
	 M172.51,363.46c0,0.23-0.17,0.42-0.4,0.45l-12.49,1.44c-3.97,0.46-7.86,1.47-11.54,3.02c-14.72,6.15-31.61,6.17-46.32,0.06
	c-0.01,0-0.1-0.04-0.11-0.05c-3.83-1.59-7.85-2.64-11.96-3.11l-11.83-1.36c-0.23-0.03-0.4-0.22-0.4-0.45v-11.93
	c0-16.37,13.32-29.68,29.68-29.68h35.68c16.37,0,29.68,13.32,29.68,29.68V363.46z M124.98,301.87c17.13,0,31.01-13.41,31.61-30.53
	l0.83-23.98c0.3-8.65-2.85-16.84-8.86-23.07s-14.09-9.66-22.75-9.66h-1.67c-8.66,0-16.74,3.43-22.75,9.66s-9.16,14.42-8.86,23.07
	l0.83,23.98C93.97,288.46,107.85,301.87,124.98,301.87z M110.03,232.63c3.73-3.86,8.75-5.99,14.12-5.99h1.67
	c5.37,0,10.39,2.13,14.12,5.99c3.73,3.86,5.68,8.95,5.5,14.32l-0.83,23.98c-0.37,10.62-8.99,18.94-19.61,18.94
	s-19.25-8.32-19.61-18.94l-0.83-23.98C104.35,241.57,106.3,236.49,110.03,232.63z M268.1,181.87l20,9.95
	c0.84,0.42,1.76,0.63,2.67,0.63c1.11,0,2.21-0.31,3.18-0.92c1.77-1.11,2.84-3.06,2.82-5.14l-0.29-29.79h40.74
	c9.14,0,16.58-7.44,16.58-16.58V65.46c0-9.14-7.44-16.58-16.58-16.58H172.51c-9.14,0-16.58,7.44-16.58,16.58v16.66H97.38
	c-8.95,0-16.23,7.28-16.23,16.23v72.07c0,8.95,7.28,16.23,16.23,16.23h42.16l32.42,32.86c1.17,1.19,2.72,1.79,4.27,1.79
	c1.52,0,3.04-0.58,4.21-1.73l33.38-32.92h42.77C261.03,186.65,265.12,184.87,268.1,181.87z M167.92,65.46
	c0-2.53,2.06-4.58,4.58-4.58h164.71c2.53,0,4.58,2.06,4.58,4.58v74.56c0,2.53-2.06,4.58-4.58,4.58h-46.8c-1.6,0-3.14,0.64-4.26,1.78
	s-1.75,2.68-1.74,4.28l0.26,26.05l-63.29-31.48c-0.83-0.41-1.75-0.63-2.67-0.63h-46.21c-2.53,0-4.58-2.06-4.58-4.58V65.46z
	 M211.36,174.65c-1.58,0-3.09,0.62-4.21,1.73l-30.86,30.44l-29.97-30.38c-1.13-1.14-2.67-1.79-4.27-1.79H97.38
	c-2.33,0-4.23-1.9-4.23-4.23V98.35c0-2.33,1.9-4.23,4.23-4.23h58.54v45.9c0,9.14,7.44,16.58,16.58,16.58h44.8l36.28,18.05H211.36z
	 M321.96,306.43h-35.68c-22.98,0-41.68,18.7-41.68,41.68v11.94c0,6.32,4.74,11.64,11.02,12.37l11.83,1.36
	c3,0.35,5.94,1.11,8.71,2.26c0.01,0,0.1,0.04,0.11,0.04c8.81,3.66,18.26,5.49,27.72,5.49c9.5,0,19.01-1.85,27.86-5.55
	c2.65-1.11,5.44-1.84,8.29-2.17l12.49-1.44c6.28-0.73,11.02-6.04,11.02-12.37v-11.94C363.64,325.12,344.95,306.43,321.96,306.43z
	 M351.64,360.04c0,0.23-0.17,0.42-0.4,0.45l-12.49,1.44c-3.97,0.46-7.85,1.47-11.54,3.02c-14.72,6.15-31.61,6.17-46.32,0.06
	c-0.01,0-0.1-0.04-0.11-0.05c-3.83-1.59-7.85-2.63-11.96-3.11L257,360.49c-0.23-0.03-0.4-0.22-0.4-0.45v-11.94
	c0-16.37,13.32-29.68,29.68-29.68h35.68c16.37,0,29.68,13.32,29.68,29.68V360.04z M303.29,211.22c-8.66,0-16.74,3.43-22.75,9.66
	c-6.01,6.23-9.16,14.42-8.86,23.07l0.83,23.98c0.59,17.12,14.48,30.53,31.61,30.53s31.01-13.41,31.61-30.53l0.83-23.98
	c0.3-8.65-2.84-16.84-8.86-23.07c-6.01-6.23-14.09-9.66-22.75-9.66H303.29z M324.57,243.53l-0.83,23.98
	c-0.37,10.62-8.99,18.94-19.62,18.94c-10.63,0-19.25-8.32-19.61-18.94l-0.83-23.98c-0.19-5.37,1.77-10.45,5.5-14.32
	c3.73-3.86,8.75-5.99,14.12-5.99h1.67c5.37,0,10.39,2.13,14.12,5.99C322.8,233.07,324.76,238.16,324.57,243.53z"/>
</svg>
