<?xml version="1.0" encoding="UTF-8"?>
<svg xmlns="http://www.w3.org/2000/svg" xmlns:xlink="http://www.w3.org/1999/xlink" viewBox="0 0 64 64" width="64px" height="64px">
<defs>
<linearGradient id="linear0" gradientUnits="userSpaceOnUse" x1="19" y1="15" x2="19" y2="23" >
<stop offset="0" style="stop-color:rgb(6.27451%,96.862745%,67.843139%);stop-opacity:1;"/>
<stop offset="1" style="stop-color:rgb(12.54902%,76.862746%,79.607844%);stop-opacity:1;"/>
</linearGradient>
<linearGradient id="linear1" gradientUnits="userSpaceOnUse" x1="19" y1="28" x2="19" y2="36" >
<stop offset="0" style="stop-color:rgb(6.27451%,96.862745%,67.843139%);stop-opacity:1;"/>
<stop offset="1" style="stop-color:rgb(12.54902%,76.862746%,79.607844%);stop-opacity:1;"/>
</linearGradient>
<linearGradient id="linear2" gradientUnits="userSpaceOnUse" x1="19" y1="41" x2="19" y2="49" >
<stop offset="0" style="stop-color:rgb(6.27451%,96.862745%,67.843139%);stop-opacity:1;"/>
<stop offset="1" style="stop-color:rgb(12.54902%,76.862746%,79.607844%);stop-opacity:1;"/>
</linearGradient>
<linearGradient id="linear3" gradientUnits="userSpaceOnUse" x1="32" y1="9" x2="32" y2="55" >
<stop offset="0" style="stop-color:rgb(6.27451%,96.862745%,67.843139%);stop-opacity:1;"/>
<stop offset="1" style="stop-color:rgb(12.54902%,76.862746%,79.607844%);stop-opacity:1;"/>
</linearGradient>
</defs>
<g id="surface189167825">
<path style=" stroke:none;fill-rule:nonzero;fill:url(#linear0);" d="M 23 19 C 23 21.210938 21.210938 23 19 23 C 16.789062 23 15 21.210938 15 19 C 15 16.789062 16.789062 15 19 15 C 21.210938 15 23 16.789062 23 19 Z M 23 19 "/>
<path style=" stroke:none;fill-rule:nonzero;fill:url(#linear1);" d="M 23 32 C 23 34.210938 21.210938 36 19 36 C 16.789062 36 15 34.210938 15 32 C 15 29.789062 16.789062 28 19 28 C 21.210938 28 23 29.789062 23 32 Z M 23 32 "/>
<path style=" stroke:none;fill-rule:nonzero;fill:url(#linear2);" d="M 23 45 C 23 47.210938 21.210938 49 19 49 C 16.789062 49 15 47.210938 15 45 C 15 42.789062 16.789062 41 19 41 C 21.210938 41 23 42.789062 23 45 Z M 23 45 "/>
<path style=" stroke:none;fill-rule:nonzero;fill:url(#linear3);" d="M 19 27 C 16.242188 27 14 29.242188 14 32 C 14 34.757812 16.242188 37 19 37 C 21.757812 37 24 34.757812 24 32 C 24 29.242188 21.757812 27 19 27 Z M 19 35 C 17.347656 35 16 33.652344 16 32 C 16 30.347656 17.347656 29 19 29 C 20.652344 29 22 30.347656 22 32 C 22 33.652344 20.652344 35 19 35 Z M 19 14 C 16.242188 14 14 16.242188 14 19 C 14 21.757812 16.242188 24 19 24 C 21.757812 24 24 21.757812 24 19 C 24 16.242188 21.757812 14 19 14 Z M 19 22 C 17.347656 22 16 20.652344 16 19 C 16 17.347656 17.347656 16 19 16 C 20.652344 16 22 17.347656 22 19 C 22 20.652344 20.652344 22 19 22 Z M 50 9 L 14 9 C 11.242188 9 9 11.242188 9 14 L 9 50 C 9 52.757812 11.242188 55 14 55 L 50 55 C 52.757812 55 55 52.757812 55 50 L 55 14 C 55 11.242188 52.757812 9 50 9 Z M 53 50 C 53 51.652344 51.652344 53 50 53 L 14 53 C 12.347656 53 11 51.652344 11 50 L 11 14 C 11 12.347656 12.347656 11 14 11 L 50 11 C 51.652344 11 53 12.347656 53 14 Z M 19 40 C 16.242188 40 14 42.242188 14 45 C 14 47.757812 16.242188 50 19 50 C 21.757812 50 24 47.757812 24 45 C 24 42.242188 21.757812 40 19 40 Z M 19 48 C 17.347656 48 16 46.652344 16 45 C 16 43.347656 17.347656 42 19 42 C 20.652344 42 22 43.347656 22 45 C 22 46.652344 20.652344 48 19 48 Z M 49 19 C 49 19.550781 48.554688 20 48 20 L 29 20 C 28.445312 20 28 19.550781 28 19 C 28 18.449219 28.445312 18 29 18 L 48 18 C 48.554688 18 49 18.449219 49 19 Z M 49 45 C 49 45.554688 48.554688 46 48 46 L 29 46 C 28.445312 46 28 45.554688 28 45 C 28 44.445312 28.445312 44 29 44 L 48 44 C 48.554688 44 49 44.445312 49 45 Z M 49 32 C 49 32.550781 48.554688 33 48 33 L 29 33 C 28.445312 33 28 32.550781 28 32 C 28 31.449219 28.445312 31 29 31 L 48 31 C 48.554688 31 49 31.449219 49 32 Z M 49 32 "/>
</g>
</svg>
