<?xml version="1.0" encoding="UTF-8"?>
<svg xmlns="http://www.w3.org/2000/svg" xmlns:xlink="http://www.w3.org/1999/xlink" viewBox="0 0 64 64" width="64px" height="64px">
<defs>
<linearGradient id="linear0" gradientUnits="userSpaceOnUse" x1="32" y1="12" x2="32" y2="52" >
<stop offset="0" style="stop-color:rgb(6.27451%,96.862745%,67.450982%);stop-opacity:1;"/>
<stop offset="1" style="stop-color:rgb(14.117648%,72.156864%,82.352942%);stop-opacity:1;"/>
</linearGradient>
<linearGradient id="linear1" gradientUnits="userSpaceOnUse" x1="53.974998" y1="20.110001" x2="53.974998" y2="50" >
<stop offset="0" style="stop-color:rgb(6.27451%,96.862745%,67.450982%);stop-opacity:1;"/>
<stop offset="1" style="stop-color:rgb(14.117648%,72.156864%,82.352942%);stop-opacity:1;"/>
</linearGradient>
<linearGradient id="linear2" gradientUnits="userSpaceOnUse" x1="10.025" y1="20.110001" x2="10.025" y2="50" >
<stop offset="0" style="stop-color:rgb(6.27451%,96.862745%,67.450982%);stop-opacity:1;"/>
<stop offset="1" style="stop-color:rgb(14.117648%,72.156864%,82.352942%);stop-opacity:1;"/>
</linearGradient>
<linearGradient id="linear3" gradientUnits="userSpaceOnUse" x1="32" y1="14.13" x2="32" y2="34.77" >
<stop offset="0" style="stop-color:rgb(6.27451%,96.862745%,67.450982%);stop-opacity:1;"/>
<stop offset="1" style="stop-color:rgb(14.117648%,72.156864%,82.352942%);stop-opacity:1;"/>
</linearGradient>
</defs>
<g id="surface176519928">
<path style=" stroke:none;fill-rule:nonzero;fill:url(#linear0);" d="M 58 16.820312 L 57.988281 16.820312 C 57.941406 14.148438 55.808594 12 53.199219 12 L 10.800781 12 C 8.191406 12 6.058594 14.148438 6.011719 16.820312 L 6 16.820312 C 6 16.828125 6.011719 16.839844 6.011719 16.859375 C 6.011719 16.878906 6 16.890625 6 16.910156 L 6 47.089844 C 6 49.800781 8.160156 52 10.800781 52 L 53.199219 52 C 55.839844 52 58 49.800781 58 47.089844 L 58 16.910156 C 58 16.890625 57.988281 16.878906 57.988281 16.859375 C 57.988281 16.839844 58 16.828125 58 16.820312 Z M 50.671875 14 L 32 27.109375 L 13.328125 14 Z M 10.03125 14.128906 L 32 29.558594 L 53.96875 14.128906 C 55.121094 14.46875 55.96875 15.550781 55.988281 16.851562 C 55.960938 17.488281 55.121094 18.289062 54.691406 18.589844 L 32 34.769531 L 9.300781 18.578125 C 8.878906 18.289062 8.039062 17.488281 8.011719 16.851562 C 8.03125 15.550781 8.878906 14.46875 10.03125 14.128906 Z M 12 23 L 12 50 L 10.800781 50 C 9.261719 50 8 48.691406 8 47.089844 L 8 20.109375 C 8.070312 20.160156 8.121094 20.199219 8.140625 20.21875 L 12.050781 23 Z M 50 50 L 14 50 L 14 24.390625 L 32 37.230469 L 50 24.390625 Z M 56 47.089844 C 56 48.691406 54.738281 50 53.199219 50 L 52 50 L 52 23 L 51.949219 23 L 55.851562 20.21875 C 55.871094 20.199219 55.929688 20.160156 56 20.109375 Z M 56 47.089844 "/>
<path style=" stroke:none;fill-rule:nonzero;fill:url(#linear1);" d="M 56 20.109375 L 56 47.089844 C 56 48.691406 54.738281 50 53.199219 50 L 52 50 L 52 23 L 51.949219 23 L 55.851562 20.21875 C 55.871094 20.199219 55.929688 20.160156 56 20.109375 Z M 56 20.109375 "/>
<path style=" stroke:none;fill-rule:nonzero;fill:url(#linear2);" d="M 12.050781 23 L 12 23 L 12 50 L 10.800781 50 C 9.261719 50 8 48.691406 8 47.089844 L 8 20.109375 C 8.070312 20.160156 8.121094 20.199219 8.140625 20.21875 Z M 12.050781 23 "/>
<path style=" stroke:none;fill-rule:nonzero;fill:url(#linear3);" d="M 55.988281 16.851562 C 55.960938 17.488281 55.121094 18.289062 54.691406 18.589844 L 32 34.769531 L 9.300781 18.578125 C 8.878906 18.289062 8.039062 17.488281 8.011719 16.851562 C 8.03125 15.550781 8.878906 14.46875 10.03125 14.128906 L 32 29.558594 L 53.96875 14.128906 C 55.121094 14.46875 55.96875 15.550781 55.988281 16.851562 Z M 55.988281 16.851562 "/>
</g>
</svg>
