<?xml version="1.0" encoding="utf-8"?>
<!-- Generator: Adobe Illustrator 26.3.1, SVG Export Plug-In . SVG Version: 6.00 Build 0)  -->
<svg version="1.1" id="Warstwa_1" xmlns="http://www.w3.org/2000/svg" xmlns:xlink="http://www.w3.org/1999/xlink" x="0px" y="0px"
	 viewBox="0 0 430 430" style="enable-background:new 0 0 430 430;" xml:space="preserve">
<style type="text/css">
	.st0{fill:url(#SVGID_1_);}
</style>
<linearGradient id="SVGID_1_" gradientUnits="userSpaceOnUse" x1="111.1756" y1="134.7956" x2="355.0056" y2="378.6256">
	<stop  offset="0" style="stop-color:#ffffff"/>
	<stop  offset="1" style="stop-color:#ffffff"/>
</linearGradient>
<path class="st0" d="M382.6,199.7L324,145.3c0-0.3,0.1-0.6,0.1-0.9V69.8c0-3.6-2.9-6.5-6.5-6.5h-47.1c-3.6,0-6.5,2.9-6.5,6.5v19.8
	l-44-40.8c-2.5-2.3-6.3-2.3-8.8,0l-165,150.8c-2.6,2.4-2.8,6.5-0.4,9.1c1.3,1.4,3,2.1,4.8,2.1c1.6,0,3.1-0.6,4.4-1.7l20.1-18.4
	v185.8c0,3.6,2.9,6.5,6.5,6.5h266.3c3.6,0,6.5-2.9,6.4-6.5V191.1l19.5,18.1c2.6,2.4,6.7,2.3,9.1-0.3
	C385.4,206.2,385.3,202.1,382.6,199.7z M276.9,100.4V76.3h34.2v57.1l-34.3-31.8C276.8,101.2,276.9,100.8,276.9,100.4z M251,370.1
	h-70.7V244.8H251V370.1z M341.4,370.1h-77.5V238.4c0-3.6-2.9-6.5-6.5-6.5h-83.6c-3.6,0-6.5,2.9-6.5,6.5v131.8H88.1V180.3
	c0-0.4,0-0.8-0.1-1.2L215.6,62.5l125.8,116.7V370.1z"/>
</svg>
